<?xml version="1.0" standalone="no"?>
<!DOCTYPE svg PUBLIC "-//W3C//DTD SVG 20010904//EN"
 "http://www.w3.org/TR/2001/REC-SVG-20010904/DTD/svg10.dtd">
<svg version="1.0" xmlns="http://www.w3.org/2000/svg"
 width="79.000000pt" height="76.000000pt" viewBox="0 0 79.000000 76.000000"
 preserveAspectRatio="xMidYMid meet">

<g transform="translate(0.000000,76.000000) scale(0.100000,-0.100000)"
fill="#000000" stroke="none">
<path d="M5 748 c-3 -7 -4 -177 -3 -378 l3 -365 390 0 390 0 0 375 0 375 -388
3 c-305 2 -389 0 -392 -10z m745 -63 l0 -35 -355 0 -355 0 0 35 0 35 355 0
355 0 0 -35z m0 -360 l0 -285 -355 0 -355 0 0 285 0 285 355 0 355 0 0 -285z"/>
<path d="M80 685 c0 -8 5 -15 10 -15 6 0 10 7 10 15 0 8 -4 15 -10 15 -5 0
-10 -7 -10 -15z"/>
<path d="M126 691 c-4 -5 -2 -12 3 -15 5 -4 12 -2 15 3 4 5 2 12 -3 15 -5 4
-12 2 -15 -3z"/>
<path d="M170 685 c0 -8 5 -15 10 -15 6 0 10 7 10 15 0 8 -4 15 -10 15 -5 0
-10 -7 -10 -15z"/>
<path d="M391 403 c-37 -141 -40 -158 -31 -167 16 -16 26 3 49 96 25 104 25
108 6 108 -8 0 -18 -16 -24 -37z"/>
<path d="M252 387 c-18 -18 -32 -37 -32 -43 0 -6 16 -25 35 -44 25 -24 38 -31
46 -23 7 7 3 19 -15 39 l-25 29 26 27 c14 14 22 31 19 37 -11 17 -20 13 -54
-22z"/>
<path d="M484 409 c-3 -6 5 -23 19 -37 l26 -27 -25 -29 c-18 -20 -22 -32 -15
-39 8 -8 21 -1 46 23 19 19 35 39 35 45 0 12 -61 75 -72 75 -4 0 -10 -5 -14
-11z"/>
</g>
</svg>
