<?xml version="1.0" standalone="no"?>
<!DOCTYPE svg PUBLIC "-//W3C//DTD SVG 20010904//EN"
 "http://www.w3.org/TR/2001/REC-SVG-20010904/DTD/svg10.dtd">
<svg version="1.0" xmlns="http://www.w3.org/2000/svg"
 width="80.000000pt" height="83.000000pt" viewBox="0 0 80.000000 83.000000"
 preserveAspectRatio="xMidYMid meet">

<g transform="translate(0.000000,83.000000) scale(0.100000,-0.100000)"
fill="#000000" stroke="none">
<path d="M4 817 c-3 -8 -4 -43 -2 -78 l3 -64 75 0 c74 0 75 0 78 28 l3 27 111
0 110 0 -6 -27 c-3 -16 -49 -113 -101 -217 l-95 -190 29 -30 c17 -17 39 -51
50 -76 l20 -45 -22 -5 c-20 -5 -22 -12 -22 -70 l0 -65 165 0 165 0 0 65 c0 58
-2 65 -22 70 -22 5 -22 5 -4 46 10 22 32 56 50 76 l31 35 -95 189 c-52 104
-97 201 -101 217 l-6 27 110 0 111 0 3 -27 c3 -28 4 -28 78 -28 l75 0 0 75 0
75 -75 0 c-74 0 -75 0 -78 -27 l-3 -28 -239 0 -239 0 -3 28 c-3 26 -5 27 -76
30 -55 2 -74 -1 -78 -11z m116 -67 l0 -40 -40 0 -40 0 0 40 0 40 40 0 40 0 0
-40z m640 0 l0 -40 -40 0 -40 0 0 40 0 40 40 0 40 0 0 -40z m-205 -470 c-27
-29 -65 -103 -65 -125 0 -12 -15 -15 -88 -15 l-88 0 -11 43 c-7 23 -27 60 -45
82 l-34 40 78 150 78 150 0 -92 c0 -80 -3 -96 -20 -113 -39 -39 -15 -110 38
-110 56 0 83 69 42 110 -17 17 -20 33 -20 116 l0 95 79 -153 79 -153 -23 -25z
m-135 85 c15 -18 5 -35 -20 -35 -10 0 -22 5 -25 10 -7 11 12 40 25 40 4 0 13
-7 20 -15z m110 -295 l0 -30 -130 0 -130 0 0 30 0 30 130 0 130 0 0 -30z"/>
</g>
</svg>
