<?xml version="1.0" standalone="no"?>
<!DOCTYPE svg PUBLIC "-//W3C//DTD SVG 20010904//EN"
 "http://www.w3.org/TR/2001/REC-SVG-20010904/DTD/svg10.dtd">
<svg version="1.0" xmlns="http://www.w3.org/2000/svg"
 width="79.000000pt" height="91.000000pt" viewBox="0 0 79.000000 91.000000"
 preserveAspectRatio="xMidYMid meet">

<g transform="translate(0.000000,91.000000) scale(0.100000,-0.100000)"
fill="#000000" stroke="none">
<path d="M372 894 c-12 -8 -22 -22 -22 -30 0 -10 -12 -14 -45 -14 -38 0 -48
-4 -67 -30 l-22 -30 -108 0 -108 0 2 -392 3 -393 390 0 390 0 3 393 2 392 -98
0 c-98 0 -98 0 -120 30 -19 26 -29 30 -67 30 -33 0 -45 4 -45 14 0 16 -37 46
-55 46 -6 0 -21 -7 -33 -16z m48 -38 c0 -28 30 -46 76 -46 42 0 44 -1 44 -30
l0 -30 -135 0 -135 0 0 30 c0 29 2 30 44 30 46 0 76 18 76 46 0 8 7 14 15 14
8 0 15 -6 15 -14z m-192 -123 c3 -23 5 -23 177 -23 172 0 174 0 177 23 3 20 9
22 86 25 l82 3 0 -361 0 -360 -355 0 -355 0 0 360 0 361 93 -3 c87 -3 92 -4
95 -25z"/>
<path d="M396 803 c-12 -12 -6 -33 9 -33 8 0 15 6 15 14 0 17 -14 28 -24 19z"/>
<path d="M248 593 c-23 -23 -29 -24 -43 -13 -29 24 -38 -4 -10 -30 l25 -24 35
34 c32 31 45 60 27 60 -4 0 -19 -12 -34 -27z"/>
<path d="M345 580 c-3 -5 0 -13 8 -15 24 -10 202 -1 202 10 0 14 -201 19 -210
5z"/>
<path d="M245 460 c-26 -27 -30 -29 -46 -14 -12 11 -19 12 -24 4 -8 -13 22
-50 40 -50 15 0 75 62 75 78 0 20 -14 14 -45 -18z"/>
<path d="M347 454 c-19 -19 2 -24 104 -24 84 0 110 3 107 13 -5 13 -198 23
-211 11z"/>
<path d="M241 326 c-19 -20 -27 -23 -42 -13 -30 18 -35 -2 -7 -29 l25 -26 37
32 c36 32 47 60 23 60 -8 0 -24 -11 -36 -24z"/>
<path d="M343 308 c2 -9 33 -13 107 -13 74 0 105 4 108 13 3 9 -23 12 -108 12
-85 0 -111 -3 -107 -12z"/>
<path d="M248 193 c-23 -23 -29 -24 -43 -13 -29 24 -38 -4 -10 -30 l25 -24 35
34 c32 31 45 60 27 60 -4 0 -19 -12 -34 -27z"/>
<path d="M345 180 c-3 -5 0 -13 8 -15 24 -10 202 -1 202 10 0 14 -201 19 -210
5z"/>
</g>
</svg>
